<?xml version="1.0" encoding="UTF-8"?>
<svg version="1.1" xmlns="http://www.w3.org/2000/svg" width="512" height="512">
<path d="M0 0 C0.95310613 -0.00694553 1.90621227 -0.01389106 2.8882004 -0.02104706 C6.05417989 -0.03921686 9.21940155 -0.02908086 12.38540649 -0.01878357 C14.66608233 -0.02584675 16.94675347 -0.03459344 19.22741699 -0.04489136 C25.40052746 -0.06734084 31.57338103 -0.06445728 37.7465167 -0.05556989 C42.90122991 -0.05045373 48.0558951 -0.05775704 53.21060336 -0.06504196 C66.05869642 -0.08299402 78.90661126 -0.07664422 91.75469275 -0.05887216 C102.9126805 -0.04415222 114.07039953 -0.05884119 125.22835271 -0.08764232 C136.69609633 -0.11702224 148.16366958 -0.12750562 159.63145792 -0.11846012 C166.06572791 -0.1135239 172.4997886 -0.11578554 178.93403244 -0.13624763 C184.9769056 -0.15454729 191.01927649 -0.14871582 197.06212234 -0.12404823 C199.28255205 -0.11902378 201.50301969 -0.12257214 203.72341919 -0.13519669 C206.7480005 -0.15103729 209.77090912 -0.13626136 212.79541016 -0.11352539 C213.6796376 -0.12536112 214.56386504 -0.13719685 215.47488725 -0.14939123 C221.38864753 -0.05869254 221.38864753 -0.05869254 224.59308815 2.86642551 C226.01675415 5.5146637 226.01675415 5.5146637 226.01675415 8.5146637 C230.63675415 8.5146637 235.25675415 8.5146637 240.01675415 8.5146637 C240.34675415 6.8646637 240.67675415 5.2146637 241.01675415 3.5146637 C242.6363611 1.20904833 243.48370257 0.60793248 246.27088928 0.12025452 C247.1518074 0.11183533 248.03272552 0.10341614 248.94033813 0.09474182 C249.94245834 0.07882996 250.94457855 0.06291809 251.97706604 0.04652405 C253.06137405 0.04632263 254.14568207 0.04612122 255.2628479 0.0459137 C256.38433731 0.03830017 257.50582672 0.03068665 258.66130066 0.02284241 C261.04107437 0.01202371 263.42089563 0.00919544 265.8006897 0.01368713 C269.40934943 0.01465169 273.01582771 -0.02679036 276.62417603 -0.0712738 C278.94122892 -0.07648695 281.25828915 -0.0791689 283.5753479 -0.0790863 C284.64143784 -0.09548157 285.70752777 -0.11187683 286.80592346 -0.12876892 C297.90731315 -0.02852231 307.11191023 3.67498649 315.1144104 11.41700745 C325.26389291 22.60853128 325.45706928 35.34387495 325.4044342 49.72019958 C325.40861047 51.57644126 325.41408959 53.43268039 325.42075402 55.2889148 C325.43518887 60.37391329 325.43096999 65.45874942 325.4235872 70.54375672 C325.418853 76.03399308 325.43136763 81.52419445 325.44160461 87.01441956 C325.45879298 97.76410396 325.45963253 108.51372992 325.45439171 119.2634245 C325.45034885 128.00164801 325.45179496 136.73985425 325.45713997 145.47807693 C325.45788839 146.72216992 325.45863681 147.9662629 325.45940791 149.24805567 C325.46093941 151.77550156 325.46247775 154.30294745 325.46402288 156.83039333 C325.47385018 173.79772213 325.47801694 190.76504384 325.470397 207.73237419 C325.47009982 208.39549853 325.46980265 209.05862286 325.46949647 209.74184188 C325.46704767 215.12646644 325.46443602 220.51109092 325.46181234 225.89571539 C325.45171099 246.89649546 325.46006477 267.89719556 325.48330688 288.89796448 C325.50939443 312.5078077 325.5221739 336.11761478 325.51511914 359.72747529 C325.51162662 372.22280556 325.51386115 384.71807018 325.53137016 397.21339035 C325.54609044 407.85035999 325.54672977 418.48721774 325.52929925 429.12418519 C325.52078554 434.54947527 325.51864898 439.97456545 325.53395081 445.39984512 C325.54779648 450.37044088 325.54303605 455.34066545 325.52371157 460.31123973 C325.51995092 462.10521944 325.52287538 463.89922887 325.53332322 465.6931821 C325.60956204 479.79110116 324.33662882 491.89933249 314.01675415 502.5146637 C305.92012449 510.03897442 296.78308323 513.13237578 285.85708618 513.03224182 C284.8964476 513.0392511 283.93580902 513.04626038 282.94606018 513.05348206 C279.80525897 513.07093331 276.66537523 513.05949075 273.52456665 513.0459137 C271.32883533 513.04861098 269.13310518 513.05249536 266.93737793 513.05751038 C262.35304302 513.06338682 257.76902125 513.05489719 253.1847229 513.03614807 C247.30661385 513.01327883 241.4292322 513.02654399 235.55114937 513.05043793 C231.02500908 513.06487697 226.49904202 513.06029996 221.97289658 513.04992676 C219.80473621 513.04725843 217.63656013 513.05053293 215.46841812 513.05984497 C212.44520428 513.06998801 209.42317997 513.05454408 206.40005493 513.03224182 C205.50442337 513.04033875 204.60879181 513.04843567 203.6860199 513.05677795 C199.80722822 513.00368635 197.68217312 512.97320947 194.43029785 510.73231506 C193.01675415 508.5146637 193.01675415 508.5146637 193.01675415 504.5146637 C188.39675415 504.5146637 183.77675415 504.5146637 179.01675415 504.5146637 C178.68675415 506.1646637 178.35675415 507.8146637 178.01675415 509.5146637 C176.91071224 511.30251312 176.91071224 511.30251312 175.01675415 512.5146637 C172.50070443 512.81356992 170.23054842 512.92815243 167.71342468 512.90907288 C166.96387101 512.91516398 166.21431734 512.92125508 165.44204992 512.92753077 C162.9226092 512.94422032 160.40367063 512.93937645 157.88418579 512.93458557 C156.08057121 512.94192295 154.27696134 512.95050821 152.47335815 512.96025085 C147.56582043 512.98252286 142.65845036 512.98539429 137.75086904 512.98350334 C133.65104282 512.98338378 129.55125229 512.99194308 125.45143598 513.00028086 C115.77062927 513.01953946 106.08990876 513.02239156 96.40908813 513.01564026 C86.43835792 513.00901401 76.46799901 513.03180104 66.49734408 513.06895399 C57.92984169 513.0997146 49.36245825 513.11100363 40.79490179 513.10711718 C35.68150923 513.10505436 30.56840486 513.11045485 25.45506477 513.13500977 C20.63765578 513.15737631 15.82084567 513.15531706 11.00343323 513.13508224 C9.24271613 513.13168843 7.48195799 513.13669046 5.72129631 513.15106583 C-7.91428674 513.25464081 -18.83904014 511.53542638 -29.0809021 501.6084137 C-39.37370234 490.2799929 -39.42452913 476.8143343 -39.3709259 462.27153015 C-39.37510319 460.4233877 -39.38058286 458.57524781 -39.38724571 456.72711265 C-39.40166722 451.66910693 -39.39746589 446.61126461 -39.3900789 441.55325007 C-39.38534138 436.09027891 -39.39786225 430.6273428 -39.40809631 425.16438293 C-39.42527815 414.4699796 -39.42612559 403.77563503 -39.42088341 393.08122148 C-39.41683935 384.38736684 -39.41828807 375.69352956 -39.42363167 366.99967575 C-39.4247543 365.14249868 -39.4247543 365.14249868 -39.42589961 363.24780288 C-39.42743112 360.73243825 -39.42896946 358.21707363 -39.43051458 355.70170902 C-39.4438463 332.7937667 -39.43952316 309.88585013 -39.42830404 286.9779095 C-39.41820283 266.08436865 -39.42655674 245.19090818 -39.44979858 224.29737854 C-39.47589045 200.80397876 -39.48866446 177.31062008 -39.48161083 153.81720436 C-39.47811926 141.38501418 -39.48034668 128.95289 -39.49786186 116.52070999 C-39.51258729 105.93759176 -39.51321472 95.354586 -39.49579095 84.77146997 C-39.48728151 79.37440241 -39.48513023 73.97753573 -39.5004425 68.58047867 C-39.51430091 63.63454225 -39.50951142 58.6889786 -39.49020327 53.74306367 C-39.48644652 51.95919021 -39.48935577 50.17528681 -39.49981492 48.39144005 C-39.57113941 35.28934871 -38.87340141 22.85428671 -29.8934021 12.4443512 C-21.44432526 3.90888298 -11.99148502 -0.11347513 0 0 Z " fill="#EDF4FE" transform="translate(60.983245849609375,-0.5146636962890625)"/>
<path d="M0 0 C0.95310613 -0.00694553 1.90621227 -0.01389106 2.8882004 -0.02104706 C6.05417989 -0.03921686 9.21940155 -0.02908086 12.38540649 -0.01878357 C14.66608233 -0.02584675 16.94675347 -0.03459344 19.22741699 -0.04489136 C25.40052746 -0.06734084 31.57338103 -0.06445728 37.7465167 -0.05556989 C42.90122991 -0.05045373 48.0558951 -0.05775704 53.21060336 -0.06504196 C66.05869642 -0.08299402 78.90661126 -0.07664422 91.75469275 -0.05887216 C102.9126805 -0.04415222 114.07039953 -0.05884119 125.22835271 -0.08764232 C136.69609633 -0.11702224 148.16366958 -0.12750562 159.63145792 -0.11846012 C166.06572791 -0.1135239 172.4997886 -0.11578554 178.93403244 -0.13624763 C184.9769056 -0.15454729 191.01927649 -0.14871582 197.06212234 -0.12404823 C199.28255205 -0.11902378 201.50301969 -0.12257214 203.72341919 -0.13519669 C206.7480005 -0.15103729 209.77090912 -0.13626136 212.79541016 -0.11352539 C213.6796376 -0.12536112 214.56386504 -0.13719685 215.47488725 -0.14939123 C221.38864753 -0.05869254 221.38864753 -0.05869254 224.59308815 2.86642551 C226.01675415 5.5146637 226.01675415 5.5146637 226.01675415 8.5146637 C230.63675415 8.5146637 235.25675415 8.5146637 240.01675415 8.5146637 C240.34675415 6.8646637 240.67675415 5.2146637 241.01675415 3.5146637 C242.6363611 1.20904833 243.48370257 0.60793248 246.27088928 0.12025452 C247.1518074 0.11183533 248.03272552 0.10341614 248.94033813 0.09474182 C249.94245834 0.07882996 250.94457855 0.06291809 251.97706604 0.04652405 C253.06137405 0.04632263 254.14568207 0.04612122 255.2628479 0.0459137 C256.38433731 0.03830017 257.50582672 0.03068665 258.66130066 0.02284241 C261.04107437 0.01202371 263.42089563 0.00919544 265.8006897 0.01368713 C269.40934943 0.01465169 273.01582771 -0.02679036 276.62417603 -0.0712738 C278.94122892 -0.07648695 281.25828915 -0.0791689 283.5753479 -0.0790863 C284.64143784 -0.09548157 285.70752777 -0.11187683 286.80592346 -0.12876892 C297.90731315 -0.02852231 307.11191023 3.67498649 315.1144104 11.41700745 C325.26389291 22.60853128 325.45706928 35.34387495 325.4044342 49.72019958 C325.40861047 51.57644126 325.41408959 53.43268039 325.42075402 55.2889148 C325.43518887 60.37391329 325.43096999 65.45874942 325.4235872 70.54375672 C325.418853 76.03399308 325.43136763 81.52419445 325.44160461 87.01441956 C325.45879298 97.76410396 325.45963253 108.51372992 325.45439171 119.2634245 C325.45034885 128.00164801 325.45179496 136.73985425 325.45713997 145.47807693 C325.45788839 146.72216992 325.45863681 147.9662629 325.45940791 149.24805567 C325.46093941 151.77550156 325.46247775 154.30294745 325.46402288 156.83039333 C325.47385018 173.79772213 325.47801694 190.76504384 325.470397 207.73237419 C325.47009982 208.39549853 325.46980265 209.05862286 325.46949647 209.74184188 C325.46704767 215.12646644 325.46443602 220.51109092 325.46181234 225.89571539 C325.45171099 246.89649546 325.46006477 267.89719556 325.48330688 288.89796448 C325.50939443 312.5078077 325.5221739 336.11761478 325.51511914 359.72747529 C325.51162662 372.22280556 325.51386115 384.71807018 325.53137016 397.21339035 C325.54609044 407.85035999 325.54672977 418.48721774 325.52929925 429.12418519 C325.52078554 434.54947527 325.51864898 439.97456545 325.53395081 445.39984512 C325.54779648 450.37044088 325.54303605 455.34066545 325.52371157 460.31123973 C325.51995092 462.10521944 325.52287538 463.89922887 325.53332322 465.6931821 C325.60956204 479.79110116 324.33662882 491.89933249 314.01675415 502.5146637 C305.92012449 510.03897442 296.78308323 513.13237578 285.85708618 513.03224182 C284.8964476 513.0392511 283.93580902 513.04626038 282.94606018 513.05348206 C279.80525897 513.07093331 276.66537523 513.05949075 273.52456665 513.0459137 C271.32883533 513.04861098 269.13310518 513.05249536 266.93737793 513.05751038 C262.35304302 513.06338682 257.76902125 513.05489719 253.1847229 513.03614807 C247.30661385 513.01327883 241.4292322 513.02654399 235.55114937 513.05043793 C231.02500908 513.06487697 226.49904202 513.06029996 221.97289658 513.04992676 C219.80473621 513.04725843 217.63656013 513.05053293 215.46841812 513.05984497 C212.44520428 513.06998801 209.42317997 513.05454408 206.40005493 513.03224182 C205.50442337 513.04033875 204.60879181 513.04843567 203.6860199 513.05677795 C197.67250064 512.97446692 197.67250064 512.97446692 194.43029785 510.70106506 C193.01675415 508.5146637 193.01675415 508.5146637 193.01675415 505.0146637 C194.13946884 501.0851623 194.74062302 499.89161673 198.01675415 497.5146637 C200.99163742 496.93693252 203.91908096 497.0022385 206.94107056 497.04811096 C207.84242737 497.04580475 208.74378418 497.04349854 209.67245483 497.04112244 C211.62912375 497.03849304 213.58582107 497.04493893 215.54243851 497.05937386 C218.64587005 497.0812643 221.74832681 497.07754067 224.85180664 497.06689453 C232.56409611 497.04522285 240.27617071 497.06251409 247.98843384 497.08839417 C254.49871014 497.10985661 261.00836087 497.11164682 267.51862717 497.08547783 C270.56436148 497.08114667 273.60899195 497.10571472 276.65460205 497.13101196 C287.49077331 497.13897951 296.33072287 497.0585442 304.51675415 489.0771637 C307.4904455 483.99710764 308.2673579 479.44729016 308.27846718 473.60751534 C308.28446127 472.59676933 308.28446127 472.59676933 308.29057646 471.56560421 C308.3015385 469.3094643 308.29835122 467.05357016 308.29522705 464.79740906 C308.30023061 463.16293177 308.30610658 461.52845695 308.31277978 459.89398563 C308.32858656 455.40390739 308.33201084 450.91389172 308.33342838 446.42378902 C308.33712124 441.58129531 308.35227615 436.73883596 308.36604309 431.8963623 C308.38832332 423.50687647 308.40333203 415.11740285 308.41341019 406.72789383 C308.42799203 394.59805682 308.45352748 382.46826236 308.48174147 370.3384503 C308.52721844 350.65891811 308.56382952 330.9793798 308.59487915 311.29981995 C308.62506098 292.18229599 308.65940957 273.06478701 308.69937134 253.94728088 C308.70183289 252.76899397 308.70429444 251.59070706 308.70683058 250.37671448 C308.71920511 244.46563 308.73166165 238.55454569 308.74415898 232.64346147 C308.84774033 183.60054979 308.93693913 134.55761942 309.01675415 85.5146637 C307.76385243 85.51927266 306.51095072 85.52388163 305.22008228 85.52863026 C275.48662313 85.63689184 245.75321475 85.71935231 216.01960685 85.76999034 C212.36085938 85.77624397 208.70211233 85.78271557 205.04336548 85.7893219 C204.31496703 85.79063345 203.58656857 85.791945 202.83609744 85.7932963 C191.03799986 85.8150599 179.24002395 85.85448662 167.44199858 85.90042768 C155.3384192 85.94716589 143.2349036 85.97495349 131.13123769 85.98510617 C123.66102485 85.99197086 116.1911559 86.01366101 108.72104891 86.05424603 C102.9953942 86.08377108 97.26996042 86.0869445 91.54424477 86.0802021 C89.19360229 86.0815806 86.84294712 86.09156537 84.49238205 86.11069107 C81.28817464 86.13548939 78.08545051 86.12961618 74.88121033 86.11593628 C73.47896956 86.13778259 73.47896956 86.13778259 72.0484007 86.16007024 C67.48794563 86.10727313 65.61609807 85.97863021 61.90022564 83.10208416 C60.01675415 80.5146637 60.01675415 80.5146637 60.01675415 78.5146637 C55.06675415 78.5146637 50.11675415 78.5146637 45.01675415 78.5146637 C44.35675415 80.1646637 43.69675415 81.8146637 43.01675415 83.5146637 C39.49057771 85.86544799 38.06510534 85.75836969 33.89297485 85.74171448 C32.63189407 85.74156342 31.37081329 85.74141235 30.07151794 85.74125671 C28.69518883 85.73104346 27.31886132 85.72061147 25.9425354 85.7099762 C24.53434958 85.70624542 23.12616115 85.70339875 21.7179718 85.70140076 C18.01402605 85.69376934 14.31023747 85.67412518 10.60635376 85.6519928 C6.82585781 85.63152372 3.04533643 85.62239678 -0.73519897 85.61231995 C-8.15128621 85.59087873 -15.56724399 85.55674883 -22.98324585 85.5146637 C-22.92438813 135.71621023 -22.84985875 185.9177124 -22.75425957 236.11920315 C-22.74299117 242.04358497 -22.73185275 247.96796703 -22.72079468 253.89234924 C-22.71859099 255.07180591 -22.71638731 256.25126257 -22.71411685 257.46646034 C-22.67872751 276.57354346 -22.65387261 295.68062653 -22.63289883 314.78773028 C-22.61114982 334.38785544 -22.57810796 353.987938 -22.53454429 373.58802694 C-22.50801209 385.68600896 -22.49032826 397.78393789 -22.48389981 409.88194757 C-22.47865074 418.1737398 -22.46244992 426.46546517 -22.43758019 434.75722159 C-22.42354876 439.54382623 -22.41440053 444.33031114 -22.41823769 449.11693764 C-22.42164375 453.49859133 -22.41130712 457.87998914 -22.39001033 462.26159041 C-22.38473483 463.84716003 -22.38451552 465.43275616 -22.38985022 467.01832557 C-22.39636461 469.17401106 -22.38445333 471.32885227 -22.36800671 473.48446751 C-22.3661081 474.68172571 -22.3642095 475.87898391 -22.36225337 477.11252266 C-21.63849566 483.6092956 -19.084743 488.32009937 -13.98324585 492.5146637 C-6.17322933 497.84341218 2.21204276 497.07598648 11.29312134 497.02882385 C13.05134189 497.03428893 14.80955767 497.04153284 16.56776428 497.05041504 C20.34205997 497.06571569 24.11608397 497.06856946 27.89040375 497.06164932 C33.8571278 497.05084459 39.82356875 497.06826481 45.79025269 497.08946228 C55.22358956 497.11968621 64.65684227 497.13141408 74.09022355 497.13503873 C90.99648021 497.14169578 107.90267897 497.17065618 124.80886388 497.22013509 C130.74209645 497.23664554 136.67520662 497.24204756 142.60845995 497.2385447 C146.29393071 497.23810826 149.97935504 497.24566284 153.66481209 497.25522041 C155.37567266 497.25790708 157.08654259 497.25714491 158.79739952 497.25271034 C161.12973105 497.24708195 163.4617252 497.25360131 165.79403687 497.2631073 C167.0999667 497.26344278 168.40589653 497.26377827 169.75139999 497.26412392 C172.81819191 497.49942867 174.51400494 497.78210759 177.01675415 499.5146637 C178.58642966 502.28028245 179.05625962 503.96158718 178.82925415 507.1396637 C177.8905174 509.88366343 177.36466263 510.81908642 175.01675415 512.5146637 C172.50070443 512.81356992 170.23054842 512.92815243 167.71342468 512.90907288 C166.96387101 512.91516398 166.21431734 512.92125508 165.44204992 512.92753077 C162.9226092 512.94422032 160.40367063 512.93937645 157.88418579 512.93458557 C156.08057121 512.94192295 154.27696134 512.95050821 152.47335815 512.96025085 C147.56582043 512.98252286 142.65845036 512.98539429 137.75086904 512.98350334 C133.65104282 512.98338378 129.55125229 512.99194308 125.45143598 513.00028086 C115.77062927 513.01953946 106.08990876 513.02239156 96.40908813 513.01564026 C86.43835792 513.00901401 76.46799901 513.03180104 66.49734408 513.06895399 C57.92984169 513.0997146 49.36245825 513.11100363 40.79490179 513.10711718 C35.68150923 513.10505436 30.56840486 513.11045485 25.45506477 513.13500977 C20.63765578 513.15737631 15.82084567 513.15531706 11.00343323 513.13508224 C9.24271613 513.13168843 7.48195799 513.13669046 5.72129631 513.15106583 C-7.91428674 513.25464081 -18.83904014 511.53542638 -29.0809021 501.6084137 C-39.37370234 490.2799929 -39.42452913 476.8143343 -39.3709259 462.27153015 C-39.37510319 460.4233877 -39.38058286 458.57524781 -39.38724571 456.72711265 C-39.40166722 451.66910693 -39.39746589 446.61126461 -39.3900789 441.55325007 C-39.38534138 436.09027891 -39.39786225 430.6273428 -39.40809631 425.16438293 C-39.42527815 414.4699796 -39.42612559 403.77563503 -39.42088341 393.08122148 C-39.41683935 384.38736684 -39.41828807 375.69352956 -39.42363167 366.99967575 C-39.4247543 365.14249868 -39.4247543 365.14249868 -39.42589961 363.24780288 C-39.42743112 360.73243825 -39.42896946 358.21707363 -39.43051458 355.70170902 C-39.4438463 332.7937667 -39.43952316 309.88585013 -39.42830404 286.9779095 C-39.41820283 266.08436865 -39.42655674 245.19090818 -39.44979858 224.29737854 C-39.47589045 200.80397876 -39.48866446 177.31062008 -39.48161083 153.81720436 C-39.47811926 141.38501418 -39.48034668 128.95289 -39.49786186 116.52070999 C-39.51258729 105.93759176 -39.51321472 95.354586 -39.49579095 84.77146997 C-39.48728151 79.37440241 -39.48513023 73.97753573 -39.5004425 68.58047867 C-39.51430091 63.63454225 -39.50951142 58.6889786 -39.49020327 53.74306367 C-39.48644652 51.95919021 -39.48935577 50.17528681 -39.49981492 48.39144005 C-39.57113941 35.28934871 -38.87340141 22.85428671 -29.8934021 12.4443512 C-21.44432526 3.90888298 -11.99148502 -0.11347513 0 0 Z " fill="#FE7D91" transform="translate(60.983245849609375,-0.5146636962890625)"/>
<path d="M0 0 C0.94140335 -0.00960754 1.8828067 -0.01921509 2.85273743 -0.02911377 C4.37619026 -0.03548859 4.37619026 -0.03548859 5.93041992 -0.04199219 C6.97735519 -0.04769226 8.02429047 -0.05339233 9.10295105 -0.05926514 C11.31960032 -0.06871485 13.53626363 -0.075249 15.75292969 -0.07910156 C19.13721357 -0.08879935 22.52088816 -0.11982032 25.9050293 -0.15136719 C28.05932257 -0.15789817 30.21362018 -0.16314827 32.36791992 -0.16699219 C33.37748245 -0.17933899 34.38704498 -0.19168579 35.42720032 -0.20440674 C43.26732176 -0.17966179 48.55259463 1.67038056 54.34838867 7.16113281 C58.53703291 13.17703795 59.46872481 17.97440839 59.51892281 25.19294071 C59.52829328 26.26047319 59.52829328 26.26047319 59.53785306 27.34957197 C59.55762408 29.74679569 59.57034737 32.1440041 59.58303833 34.54127502 C59.59564286 36.27282592 59.60863237 38.00437405 59.62197483 39.73591942 C59.65729528 44.50495575 59.68612143 49.27401243 59.71365809 54.04309928 C59.73798832 58.13208752 59.76588678 62.22104877 59.7936144 66.31001515 C60.05549335 105.17806879 60.19706486 144.04685534 60.31132698 182.91558933 C60.32649304 187.98368479 60.34195071 193.05177926 60.35766602 198.11987305 C60.36350668 200.00922566 60.36350668 200.00922566 60.36946534 201.93674701 C60.43415058 222.27316268 60.56185662 242.60869766 60.71412171 262.94462539 C60.86941283 283.86028583 60.95910043 304.77549084 60.98856342 325.69171089 C61.00865666 338.56780537 61.07783566 351.44161681 61.2123221 364.31703281 C61.29984411 373.17456297 61.32269673 382.0308802 61.29742528 390.88879866 C61.2847011 395.98018449 61.29773343 401.06753981 61.38834 406.15822411 C61.83253162 432.46856751 57.83126104 451.36309044 44.58261466 474.2025193 C41.04761747 480.3562591 38.03344605 486.77834998 34.96406724 493.17286653 C33.47059685 496.27148896 31.94560728 499.35427123 30.42260742 502.43847656 C29.9233374 503.45159912 29.42406738 504.46472168 28.90966797 505.50854492 C27.29926114 508.24459968 25.80344396 510.15139006 23.34838867 512.16113281 C17.86243362 513.03191933 17.86243362 513.03191933 15.34838867 512.16113281 C11.80569708 508.28243778 9.30155384 504.55724863 6.96557617 499.82128906 C6.6693335 499.22587814 6.37309082 498.63046722 6.06787109 498.01701355 C5.11168433 496.08973471 4.16734353 494.15692785 3.22338867 492.22363281 C2.56004756 490.87993241 1.89614176 489.53651064 1.23168945 488.19335938 C-4.08045557 477.4301296 -9.34610754 466.63643833 -14.38133383 455.74063814 C-15.57544772 453.2014153 -15.57544772 453.2014153 -16.95468378 451.09754717 C-21.79264297 443.07484746 -21.34536893 434.91540588 -21.27307129 425.8777771 C-21.27740431 424.12180142 -21.28392394 422.36583002 -21.29243135 420.6098696 C-21.30938316 415.80205571 -21.29526934 410.99476457 -21.27591658 406.18697834 C-21.26046543 400.99538507 -21.27389763 395.80385484 -21.28366089 390.61225891 C-21.29817713 380.44940429 -21.28596414 370.28674965 -21.26454765 360.12391399 C-21.24052235 348.28824724 -21.24225293 336.45262617 -21.24485356 324.61694045 C-21.24854263 303.50011931 -21.22772675 282.38339233 -21.19360352 261.26660156 C-21.16050449 240.77601746 -21.14634678 220.28553217 -21.15258789 199.79492188 C-21.15935164 177.47864654 -21.15689274 155.16241259 -21.13722849 132.84614336 C-21.136189 131.66615252 -21.13514952 130.48616167 -21.13407853 129.27041353 C-21.13198764 126.90048556 -21.12987667 124.53055761 -21.12774536 122.16062968 C-21.12084989 113.91027892 -21.12018042 105.6599409 -21.12162781 97.40958786 C-21.12306737 87.35697301 -21.11337906 77.30443872 -21.08968145 67.25185059 C-21.07782046 62.12278204 -21.07069706 56.9938258 -21.07651901 51.86474419 C-21.08169109 47.16949224 -21.0730016 42.47447755 -21.05324441 37.77926619 C-21.04850517 36.08092103 -21.04880397 34.38255276 -21.05465478 32.68421106 C-21.11641426 12.83921583 -21.11641426 12.83921583 -13.65161133 5.16113281 C-9.04855871 1.77929824 -5.70122424 0.04701697 0 0 Z " fill="#040302" transform="translate(430.651611328125,-0.1611328125)"/>
<path d="M0 0 C15.84 0 31.68 0 48 0 C48 106.59 48 213.18 48 323 C32.16 323 16.32 323 0 323 C0 216.41 0 109.82 0 0 Z " fill="#FEE07C" transform="translate(426,110)"/>
<path d="M0 0 C0.95310613 -0.00694553 1.90621227 -0.01389106 2.8882004 -0.02104706 C6.05417989 -0.03921686 9.21940155 -0.02908086 12.38540649 -0.01878357 C14.66608233 -0.02584675 16.94675347 -0.03459344 19.22741699 -0.04489136 C25.40052746 -0.06734084 31.57338103 -0.06445728 37.7465167 -0.05556989 C42.90122991 -0.05045373 48.0558951 -0.05775704 53.21060336 -0.06504196 C66.05869642 -0.08299402 78.90661126 -0.07664422 91.75469275 -0.05887216 C102.9126805 -0.04415222 114.07039953 -0.05884119 125.22835271 -0.08764232 C136.69609633 -0.11702224 148.16366958 -0.12750562 159.63145792 -0.11846012 C166.06572791 -0.1135239 172.4997886 -0.11578554 178.93403244 -0.13624763 C184.9769056 -0.15454729 191.01927649 -0.14871582 197.06212234 -0.12404823 C199.28255205 -0.11902378 201.50301969 -0.12257214 203.72341919 -0.13519669 C206.7480005 -0.15103729 209.77090912 -0.13626136 212.79541016 -0.11352539 C213.6796376 -0.12536112 214.56386504 -0.13719685 215.47488725 -0.14939123 C221.38855489 -0.05869396 221.38855489 -0.05869396 224.5891819 2.86251926 C226.01675415 5.5146637 226.01675415 5.5146637 226.07925415 8.5771637 C224.70650373 12.37241485 223.4549799 13.40042123 220.01675415 15.5146637 C216.97549673 16.08534846 213.9898248 16.04019219 210.90293884 16 C209.52278989 16.00596013 209.52278989 16.00596013 208.11475915 16.01204067 C205.03011594 16.02063527 201.94630829 16.00079441 198.86172485 15.98121643 C196.65063869 15.98176512 194.43955234 15.98413951 192.22846985 15.98820496 C187.46538731 15.99338508 182.70253471 15.98629794 177.93947792 15.96995354 C170.4045549 15.94486068 162.86985954 15.95111282 155.33491516 15.96243286 C144.76701118 15.97553907 134.1991607 15.97829307 123.6312561 15.9690094 C122.96082778 15.96842646 122.29039945 15.96784351 121.59965511 15.9672429 C114.12542428 15.96051936 106.65119782 15.95145215 99.17697144 15.94093323 C96.46935028 15.93719342 93.76172903 15.93353379 91.05410767 15.9299469 C90.05196764 15.92861053 90.05196764 15.92861053 89.02958236 15.92724716 C77.87160578 15.91293338 66.71370755 15.91834529 55.55573529 15.93786961 C48.06935533 15.9496763 40.58349278 15.93804988 33.09716666 15.9086169 C28.43240588 15.89533655 23.76784447 15.90279708 19.10309029 15.91589737 C16.94483676 15.91774988 14.78655591 15.91107375 12.62836075 15.89509392 C-2.57044922 15.30545058 -2.57044922 15.30545058 -15.98324585 21.5146637 C-21.844935 27.76931584 -23.26821468 34.52126001 -23.39730835 42.9756012 C-23.4166745 43.76616913 -23.43604065 44.55673706 -23.45599365 45.3712616 C-23.51540638 47.87728852 -23.56202012 50.38336235 -23.60824585 52.8896637 C-23.64646098 54.59671413 -23.68551474 56.303746 -23.72543335 58.01075745 C-23.82107596 62.17857413 -23.90524699 66.346481 -23.98324585 70.5146637 C-23.19255203 70.50578125 -22.40185822 70.4968988 -21.58720398 70.48774719 C-14.12771086 70.40752643 -6.66842754 70.34666168 0.7913847 70.30741501 C4.62637962 70.28655931 8.46101746 70.25827954 12.29580688 70.21290588 C15.99814668 70.16937462 19.70014349 70.14551141 23.4027195 70.13515472 C24.81372284 70.12777628 26.22470787 70.11336756 27.6355648 70.09174347 C29.61489863 70.06261891 31.59457917 70.06102903 33.5741272 70.06056213 C34.69997726 70.05167969 35.82582733 70.04279724 36.98579407 70.03364563 C40.71734486 70.62584853 42.37817672 71.85284976 45.01675415 74.5146637 C45.64175415 77.4521637 45.64175415 77.4521637 45.01675415 80.5146637 C42.50128256 83.63347434 41.00714835 85.31570024 37.02375793 86.11593628 C35.91567276 86.10483322 34.80758759 86.09373016 33.66592407 86.08229065 C32.40499435 86.08191299 31.14406464 86.08153534 29.84492493 86.08114624 C28.47901409 86.05561694 27.11311346 86.02953703 25.7472229 86.00294495 C24.34190633 85.99361229 22.93657343 85.98649831 21.53123474 85.98150635 C17.84336956 85.96247142 14.15649865 85.9134034 10.46902466 85.85798645 C6.70186817 85.80671674 2.93455004 85.78397599 -0.83285522 85.75880432 C-8.21677065 85.70527907 -15.59986861 85.62001152 -22.98324585 85.5146637 C-22.92438813 135.71621023 -22.84985875 185.9177124 -22.75425957 236.11920315 C-22.74299117 242.04358497 -22.73185275 247.96796703 -22.72079468 253.89234924 C-22.71859099 255.07180591 -22.71638731 256.25126257 -22.71411685 257.46646034 C-22.67872751 276.57354346 -22.65387261 295.68062653 -22.63289883 314.78773028 C-22.61114982 334.38785544 -22.57810796 353.987938 -22.53454429 373.58802694 C-22.50801209 385.68600896 -22.49032826 397.78393789 -22.48389981 409.88194757 C-22.47865074 418.1737398 -22.46244992 426.46546517 -22.43758019 434.75722159 C-22.42354876 439.54382623 -22.41440053 444.33031114 -22.41823769 449.11693764 C-22.42164375 453.49859133 -22.41130712 457.87998914 -22.39001033 462.26159041 C-22.38473483 463.84716003 -22.38451552 465.43275616 -22.38985022 467.01832557 C-22.39636461 469.17401106 -22.38445333 471.32885227 -22.36800671 473.48446751 C-22.3661081 474.68172571 -22.3642095 475.87898391 -22.36225337 477.11252266 C-21.63849566 483.6092956 -19.084743 488.32009937 -13.98324585 492.5146637 C-6.17322933 497.84341218 2.21204276 497.07598648 11.29312134 497.02882385 C13.05134189 497.03428893 14.80955767 497.04153284 16.56776428 497.05041504 C20.34205997 497.06571569 24.11608397 497.06856946 27.89040375 497.06164932 C33.8571278 497.05084459 39.82356875 497.06826481 45.79025269 497.08946228 C55.22358956 497.11968621 64.65684227 497.13141408 74.09022355 497.13503873 C90.99648021 497.14169578 107.90267897 497.17065618 124.80886388 497.22013509 C130.74209645 497.23664554 136.67520662 497.24204756 142.60845995 497.2385447 C146.29393071 497.23810826 149.97935504 497.24566284 153.66481209 497.25522041 C155.37567266 497.25790708 157.08654259 497.25714491 158.79739952 497.25271034 C161.12973105 497.24708195 163.4617252 497.25360131 165.79403687 497.2631073 C167.0999667 497.26344278 168.40589653 497.26377827 169.75139999 497.26412392 C172.81819191 497.49942867 174.51400494 497.78210759 177.01675415 499.5146637 C178.58642966 502.28028245 179.05625962 503.96158718 178.82925415 507.1396637 C177.8905174 509.88366343 177.36466263 510.81908642 175.01675415 512.5146637 C172.50070443 512.81356992 170.23054842 512.92815243 167.71342468 512.90907288 C166.96387101 512.91516398 166.21431734 512.92125508 165.44204992 512.92753077 C162.9226092 512.94422032 160.40367063 512.93937645 157.88418579 512.93458557 C156.08057121 512.94192295 154.27696134 512.95050821 152.47335815 512.96025085 C147.56582043 512.98252286 142.65845036 512.98539429 137.75086904 512.98350334 C133.65104282 512.98338378 129.55125229 512.99194308 125.45143598 513.00028086 C115.77062927 513.01953946 106.08990876 513.02239156 96.40908813 513.01564026 C86.43835792 513.00901401 76.46799901 513.03180104 66.49734408 513.06895399 C57.92984169 513.0997146 49.36245825 513.11100363 40.79490179 513.10711718 C35.68150923 513.10505436 30.56840486 513.11045485 25.45506477 513.13500977 C20.63765578 513.15737631 15.82084567 513.15531706 11.00343323 513.13508224 C9.24271613 513.13168843 7.48195799 513.13669046 5.72129631 513.15106583 C-7.91428674 513.25464081 -18.83904014 511.53542638 -29.0809021 501.6084137 C-39.37370234 490.2799929 -39.42452913 476.8143343 -39.3709259 462.27153015 C-39.37510319 460.4233877 -39.38058286 458.57524781 -39.38724571 456.72711265 C-39.40166722 451.66910693 -39.39746589 446.61126461 -39.3900789 441.55325007 C-39.38534138 436.09027891 -39.39786225 430.6273428 -39.40809631 425.16438293 C-39.42527815 414.4699796 -39.42612559 403.77563503 -39.42088341 393.08122148 C-39.41683935 384.38736684 -39.41828807 375.69352956 -39.42363167 366.99967575 C-39.4247543 365.14249868 -39.4247543 365.14249868 -39.42589961 363.24780288 C-39.42743112 360.73243825 -39.42896946 358.21707363 -39.43051458 355.70170902 C-39.4438463 332.7937667 -39.43952316 309.88585013 -39.42830404 286.9779095 C-39.41820283 266.08436865 -39.42655674 245.19090818 -39.44979858 224.29737854 C-39.47589045 200.80397876 -39.48866446 177.31062008 -39.48161083 153.81720436 C-39.47811926 141.38501418 -39.48034668 128.95289 -39.49786186 116.52070999 C-39.51258729 105.93759176 -39.51321472 95.354586 -39.49579095 84.77146997 C-39.48728151 79.37440241 -39.48513023 73.97753573 -39.5004425 68.58047867 C-39.51430091 63.63454225 -39.50951142 58.6889786 -39.49020327 53.74306367 C-39.48644652 51.95919021 -39.48935577 50.17528681 -39.49981492 48.39144005 C-39.57113941 35.28934871 -38.87340141 22.85428671 -29.8934021 12.4443512 C-21.44432526 3.90888298 -11.99148502 -0.11347513 0 0 Z " fill="#030303" transform="translate(60.983245849609375,-0.5146636962890625)"/>
<path d="M0 0 C1.00204468 -0.01583633 2.00408936 -0.03167267 3.03649902 -0.04798889 C4.11564575 -0.04302902 5.19479248 -0.03806915 6.30664062 -0.03295898 C7.42671509 -0.03915756 8.54678955 -0.04535614 9.70080566 -0.05174255 C12.07461682 -0.05884848 14.44847773 -0.05565336 16.82226562 -0.04296875 C20.42218322 -0.02920834 24.01944684 -0.06303951 27.61914062 -0.10131836 C29.93164125 -0.10227064 32.24414509 -0.10040489 34.55664062 -0.09545898 C36.15106995 -0.1153463 36.15106995 -0.1153463 37.77770996 -0.13563538 C48.86077876 -0.00041637 58.07012968 3.70545973 66.06054688 11.43579102 C76.21002938 22.62731485 76.40320576 35.36265852 76.35057068 49.73898315 C76.35474694 51.59522483 76.36022607 53.45146396 76.36689049 55.30769837 C76.38132534 60.39269686 76.37710646 65.47753299 76.36972368 70.56254029 C76.36498948 76.05277665 76.3775041 81.54297802 76.38774109 87.03320312 C76.40492946 97.78288753 76.40576901 108.53251349 76.40052819 119.28220807 C76.39648532 128.02043158 76.39793143 136.75863782 76.40327644 145.4968605 C76.40402487 146.74095349 76.40477329 147.98504647 76.40554439 149.26683924 C76.40707588 151.79428513 76.40861423 154.32173102 76.41015936 156.8491769 C76.41998665 173.8165057 76.42415341 190.78382741 76.41653347 207.75115776 C76.4162363 208.4142821 76.41593912 209.07740643 76.41563295 209.76062545 C76.41318415 215.14525 76.41057249 220.52987449 76.40794881 225.91449896 C76.39784747 246.91527903 76.40620125 267.91597913 76.42944336 288.91674805 C76.4555309 312.52659127 76.46831038 336.13639835 76.46125561 359.74625885 C76.4577631 372.24158913 76.45999763 384.73685375 76.47750664 397.23217392 C76.49222691 407.86914356 76.49286624 418.50600131 76.47543573 429.14296876 C76.46692201 434.56825884 76.46478545 439.99334902 76.48008728 445.41862869 C76.49393295 450.38922445 76.48917252 455.35944902 76.46984804 460.3300233 C76.46608739 462.12400301 76.46901186 463.91801244 76.4794597 465.71196567 C76.55569851 479.80988473 75.2827653 491.91811606 64.96289062 502.53344727 C56.86626096 510.05775799 47.72921971 513.15115935 36.80322266 513.05102539 C35.84258408 513.05803467 34.8819455 513.06504395 33.89219666 513.07226562 C30.75139545 513.08971687 27.6115117 513.07827432 24.47070312 513.06469727 C22.27497181 513.06739454 20.07924165 513.07127893 17.8835144 513.07629395 C13.29917949 513.08217039 8.71515772 513.07368076 4.13085938 513.05493164 C-1.74724967 513.0320624 -7.62463132 513.04532756 -13.50271416 513.0692215 C-18.02885445 513.08366054 -22.55482151 513.07908353 -27.08096695 513.06871033 C-29.24912731 513.066042 -31.4173034 513.0693165 -33.5854454 513.07862854 C-36.60865925 513.08877158 -39.63068355 513.07332764 -42.65380859 513.05102539 C-43.54944016 513.05912231 -44.44507172 513.06721924 -45.36784363 513.07556152 C-51.38136288 512.99325049 -51.38136288 512.99325049 -54.62356567 510.71984863 C-56.03710938 508.53344727 -56.03710938 508.53344727 -56.03710938 505.03344727 C-54.91439469 501.10394587 -54.3132405 499.9104003 -51.03710938 497.53344727 C-48.06222611 496.95571609 -45.13478257 497.02102207 -42.11279297 497.06689453 C-41.21143616 497.06458832 -40.31007935 497.0622821 -39.38140869 497.05990601 C-37.42473978 497.05727661 -35.46804245 497.0637225 -33.51142502 497.07815742 C-30.40799348 497.10004787 -27.30553672 497.09632424 -24.20205688 497.0856781 C-16.48976742 497.06400641 -8.77769281 497.08129766 -1.06542969 497.10717773 C5.44484661 497.12864018 11.95449734 497.13043039 18.46476364 497.1042614 C21.51049796 497.09993024 24.55512842 497.12449829 27.60073853 497.14979553 C38.43690978 497.15776308 47.27685934 497.07732777 55.46289062 489.09594727 C58.43658198 484.0158912 59.21349438 479.46607373 59.22460365 473.6262989 C59.22859972 472.95246823 59.23259578 472.27863756 59.23671293 471.58438778 C59.24767497 469.32824787 59.24448769 467.07235373 59.24136353 464.81619263 C59.24636708 463.18171534 59.25224305 461.54724052 59.25891626 459.9127692 C59.27472303 455.42269096 59.27814732 450.93267529 59.27956486 446.44257259 C59.28325771 441.60007888 59.29841263 436.75761953 59.31217957 431.91514587 C59.3344598 423.52566004 59.3494685 415.13618642 59.35954666 406.7466774 C59.3741285 394.61684039 59.39966396 382.48704592 59.42787795 370.35723387 C59.47335492 350.67770168 59.50996599 330.99816337 59.54101562 311.31860352 C59.57119745 292.20107956 59.60554605 273.08357058 59.64550781 253.96606445 C59.64796936 252.78777754 59.65043091 251.60949063 59.65296705 250.39549805 C59.66534158 244.48441357 59.67779813 238.57332926 59.69029546 232.66224504 C59.79387681 183.61933336 59.8830756 134.57640299 59.96289062 85.53344727 C58.70998891 85.53805623 57.45708719 85.5426652 56.16621876 85.54741383 C26.4327596 85.65567541 -3.30064877 85.73813588 -33.03425668 85.78877391 C-36.69300415 85.79502753 -40.3517512 85.80149914 -44.01049805 85.80810547 C-44.7388965 85.80941702 -45.46729495 85.81072857 -46.21776608 85.81207987 C-58.01586366 85.83384347 -69.81383957 85.87327019 -81.61186495 85.91921125 C-93.71544432 85.96594945 -105.81895992 85.99373706 -117.92262584 86.00388974 C-125.39283867 86.01075443 -132.86270762 86.03244458 -140.33281461 86.0730296 C-146.05846932 86.10255465 -151.7839031 86.10572807 -157.50961876 86.09898567 C-159.86026123 86.10036417 -162.21091641 86.11034894 -164.56148148 86.12947464 C-167.76568888 86.15427296 -170.96841302 86.14839975 -174.1726532 86.13471985 C-175.57489396 86.15656616 -175.57489396 86.15656616 -177.00546283 86.17885381 C-181.51012323 86.12670264 -183.43284328 85.99353869 -187.11848164 83.18727398 C-189.03710938 80.53344727 -189.03710938 80.53344727 -189.59960938 77.47094727 C-188.8781858 73.70351302 -188.16097896 72.77036923 -185.03710938 70.53344727 C-181.76747951 69.93694038 -178.53235103 70.01157494 -175.21697998 70.0524292 C-174.2090084 70.0490115 -173.20103682 70.0455938 -172.16252065 70.04207253 C-168.77505267 70.03546853 -165.3883719 70.05751204 -162.00097656 70.0793457 C-159.57677224 70.08047363 -157.15256656 70.07984139 -154.72836304 70.07757568 C-149.50416156 70.07666395 -144.28013906 70.08803069 -139.05599213 70.11052704 C-131.50276859 70.14303175 -123.94964168 70.15345246 -116.39635578 70.15847901 C-104.14178658 70.16723408 -91.88732387 70.19385536 -79.6328125 70.23168945 C-67.72852105 70.26840408 -55.82425851 70.29671851 -43.91992188 70.3137207 C-42.81929685 70.31529704 -42.81929685 70.31529704 -41.69643697 70.31690523 C-38.01543816 70.32212537 -34.33443915 70.3271802 -30.65344 70.33215284 C-0.11458689 70.37362148 30.42413709 70.44437292 60.96289062 70.53344727 C60.91843969 65.57065338 60.84830013 60.60909598 60.75537109 55.64697266 C60.72732078 53.962503 60.70602773 52.27790562 60.69189453 50.59326172 C60.59469401 35.66578435 60.59469401 35.66578435 53.71289062 22.72094727 C46.72434575 17.16187748 40.87628566 15.96204016 32.04101562 16.06469727 C31.01860779 16.05764771 29.99619995 16.05059814 28.94281006 16.04333496 C25.69924488 16.02139846 22.45650787 16.02428859 19.21289062 16.03344727 C14.92598687 16.04547313 10.64031103 16.03186602 6.35351562 16.00219727 C4.88002655 16.01917664 4.88002655 16.01917664 3.37677002 16.03649902 C-3.39029805 15.98614194 -3.39029805 15.98614194 -6.62402344 13.72290039 C-8.64262185 10.59525861 -9.03710938 8.24023475 -9.03710938 4.53344727 C-6.29366107 0.975634 -4.44776929 0.03137581 0 0 Z " fill="#040404" transform="translate(310.037109375,-0.533447265625)"/>
<path d="M0 0 C1.19493073 -0.0099852 1.19493073 -0.0099852 2.41400146 -0.02017212 C4.09840594 -0.03028341 5.78285036 -0.03498961 7.46728516 -0.03466797 C10.024449 -0.0390243 12.579862 -0.07531057 15.13671875 -0.11328125 C16.77863998 -0.11915341 18.42056935 -0.12312013 20.0625 -0.125 C21.195737 -0.14655655 21.195737 -0.14655655 22.35186768 -0.16854858 C27.33410137 -0.12639409 30.67410094 0.92638294 34.96331787 3.47714233 C37.06314882 4.61870856 37.06314882 4.61870856 40.796875 4.3359375 C47.01386696 4.88128767 47.01386696 4.88128767 49.734375 6.4609375 C51.47381381 9.53053539 51.21322513 11.88617926 50.796875 15.3359375 C50.13751953 16.08705811 49.47816406 16.83817871 48.79882812 17.61206055 C46.21891716 21.12231257 46.31269159 23.22078833 46.328125 27.54296875 C46.32107544 28.22719406 46.31402588 28.91141937 46.3067627 29.61637878 C46.27746389 32.52285778 46.29382132 35.42865339 46.30615234 38.33520508 C46.32511946 55.16851738 46.32511946 55.16851738 39.83203125 62.578125 C39.18105469 63.11695313 38.53007812 63.65578125 37.859375 64.2109375 C37.21097656 64.76523438 36.56257813 65.31953125 35.89453125 65.890625 C31.03332128 69.24006204 26.49642997 69.65440475 20.71484375 69.671875 C19.94183426 69.6785318 19.16882477 69.6851886 18.37239075 69.69204712 C16.74104174 69.702143 15.1096517 69.70686509 13.47827148 69.70654297 C11.00238721 69.71090576 8.52830249 69.74722595 6.05273438 69.78515625 C4.46094353 69.79102747 2.86914431 69.79499482 1.27734375 69.796875 C0.54686325 69.81124603 -0.18361725 69.82561707 -0.93623352 69.84042358 C-7.256701 69.78518035 -12.34736727 67.74285315 -17.19140625 63.66015625 C-17.62839844 63.12003906 -18.06539063 62.57992187 -18.515625 62.0234375 C-18.96550781 61.49105469 -19.41539063 60.95867187 -19.87890625 60.41015625 C-24.65879255 52.92307771 -24.73070823 45.9004739 -24.70410156 37.25805664 C-24.7031316 35.03854545 -24.74476594 32.82252702 -24.7890625 30.60351562 C-24.86735702 21.36994322 -24.0332539 13.38416412 -17.359375 6.40893555 C-11.84932183 1.36614115 -7.47649491 0.0217919 0 0 Z " fill="#030403" transform="translate(102.203125,132.6640625)"/>
<path d="M0 0 C1.56037401 -0.01647088 3.12067539 -0.04364263 4.68066406 -0.08203125 C14.85219997 -0.33061836 23.88800401 -0.22339962 31.72070312 7.16503906 C36.80386765 12.60020584 38.11192937 17.77259427 38.16772461 25.14306641 C38.17675308 25.88913651 38.18578156 26.6352066 38.19508362 27.40388489 C38.20954937 28.97974666 38.2184637 30.55566799 38.22216797 32.1315918 C38.23401071 34.51343315 38.28317942 36.89263456 38.33374023 39.27392578 C38.43396488 48.6893029 37.93425777 56.53273963 31.38867188 63.94433594 C25.73382982 69.12205951 19.48312208 70.8166268 12.02709961 70.81884766 C11.30605545 70.82646118 10.58501129 70.83407471 9.84211731 70.84191895 C8.32528113 70.85265942 6.80837137 70.85559784 5.29150391 70.85107422 C2.99960675 70.85010421 0.71109088 70.89173762 -1.58032227 70.93603516 C-9.9388743 71.00499767 -17.27537655 70.58497145 -24.20336914 65.35009766 C-32.07857427 57.2082242 -32.55487436 48.43157811 -32.51904297 37.49902344 C-32.51588716 35.48658819 -32.53937817 33.47563272 -32.56469727 31.46337891 C-32.56893502 22.96244311 -32.01196965 15.92707626 -27.51586914 8.60009766 C-19.21566254 0.52422096 -10.99110984 0.08478496 0 0 Z " fill="#040404" transform="translate(110.203369140625,216.64990234375)"/>
<path d="M0 0 C0.77300949 -0.0066568 1.54601898 -0.0133136 2.342453 -0.02017212 C3.97380201 -0.030268 5.60519205 -0.03499009 7.23657227 -0.03466797 C9.71245654 -0.03903076 12.18654126 -0.07535095 14.66210938 -0.11328125 C16.25390022 -0.11915247 17.84569944 -0.12311982 19.4375 -0.125 C20.1679805 -0.13937103 20.898461 -0.15374207 21.65107727 -0.16854858 C28.14011785 -0.11183196 33.27483682 2.01974349 38.16015625 6.30078125 C38.96839844 7.27724609 38.96839844 7.27724609 39.79296875 8.2734375 C40.34726563 8.92183594 40.9015625 9.57023437 41.47265625 10.23828125 C44.75462938 15.00157739 45.24613744 19.45856659 45.2890625 25.12890625 C45.29809097 25.87497635 45.30711945 26.62104645 45.31642151 27.38972473 C45.33088726 28.9655865 45.33980159 30.54150783 45.34350586 32.11743164 C45.3553486 34.49927299 45.40451731 36.87847441 45.45507812 39.25976562 C45.54721172 47.814395 45.39159764 55.25156512 39.91796875 62.3359375 C31.49585688 70.24557974 23.2461332 69.60832898 12.24755859 69.68603516 C10.53485501 69.70256892 8.82221971 69.7298252 7.10986328 69.76806641 C-10.08339167 70.14940186 -10.08339167 70.14940186 -15.71655273 65.69726562 C-16.16716064 65.24802734 -16.61776855 64.79878906 -17.08203125 64.3359375 C-17.80338257 63.63887695 -17.80338257 63.63887695 -18.53930664 62.92773438 C-25.5884168 55.29828854 -25.61319327 47.06294101 -25.58300781 37.25805664 C-25.58203785 35.03854545 -25.62367219 32.82252702 -25.66796875 30.60351562 C-25.74629698 21.35832023 -24.88286089 13.43455811 -18.26757812 6.40893555 C-12.72521131 1.23664855 -7.5012987 0.02266672 0 0 Z " fill="#030403" transform="translate(103.08203125,301.6640625)"/>
<path d="M0 0 C0.79187714 -0.00902847 1.58375427 -0.01805695 2.39962769 -0.02735901 C4.07562492 -0.04184934 5.75167858 -0.05074523 7.42773438 -0.05444336 C9.96324262 -0.06627123 12.49626009 -0.1154047 15.03125 -0.16601562 C23.84156137 -0.25580418 31.57476352 -0.28322026 38.8671875 5.37109375 C41.12109375 7.72265625 41.12109375 7.72265625 42.4296875 9.99609375 C42.88472656 10.75148438 43.33976562 11.506875 43.80859375 12.28515625 C45.96540686 16.53511271 46.05800789 20.38094208 46.10546875 25.0390625 C46.1135405 25.79270584 46.12161224 26.54634918 46.12992859 27.3228302 C46.1437525 28.91905429 46.15448223 30.51530773 46.16235352 32.11157227 C46.17384672 33.734057 46.19425644 35.35650472 46.22387695 36.97875977 C46.55323613 55.02359491 46.55323613 55.02359491 39.90234375 62.61328125 C39.25136719 63.15210938 38.60039062 63.6909375 37.9296875 64.24609375 C37.28128906 64.80039062 36.63289063 65.3546875 35.96484375 65.92578125 C31.10363378 69.27521829 26.56674247 69.689561 20.78515625 69.70703125 C20.01214676 69.71368805 19.23913727 69.72034485 18.44270325 69.72720337 C16.81135424 69.73729925 15.1799642 69.74202134 13.54858398 69.74169922 C11.07269971 69.74606201 8.59861499 69.7823822 6.12304688 69.8203125 C4.53125603 69.82618372 2.93945681 69.83015107 1.34765625 69.83203125 C0.61717575 69.84640228 -0.11330475 69.86077332 -0.86592102 69.87557983 C-7.1863885 69.8203366 -12.27705477 67.7780094 -17.12109375 63.6953125 C-17.55808594 63.15519531 -17.99507813 62.61507812 -18.4453125 62.05859375 C-18.89519531 61.52621094 -19.34507813 60.99382812 -19.80859375 60.4453125 C-24.58848005 52.95823396 -24.66039573 45.93563015 -24.63378906 37.29321289 C-24.6328191 35.0737017 -24.67445344 32.85768327 -24.71875 30.63867188 C-24.79704452 21.40509947 -23.9629414 13.41932037 -17.2890625 6.4440918 C-11.81066108 1.43026505 -7.43374721 0.05263993 0 0 Z " fill="#030403" transform="translate(102.1328125,386.62890625)"/>
<path d="M0 0 C0.47308594 0.39832031 0.94617187 0.79664063 1.43359375 1.20703125 C2.09488281 1.73683594 2.75617187 2.26664062 3.4375 2.8125 C4.07558594 3.33457031 4.71367188 3.85664063 5.37109375 4.39453125 C12.99627744 9.05121846 20.61391544 9.43421545 29.36619568 9.38768005 C30.587812 9.39306559 31.80942832 9.39845113 33.06806332 9.40399987 C36.4376663 9.41578466 39.80677139 9.41423032 43.17635405 9.40683305 C46.81857099 9.40208761 50.46073577 9.41462332 54.10293579 9.42485046 C61.22987399 9.44201663 68.35672394 9.44288306 75.48367744 9.43763756 C81.27810405 9.43359074 87.07250464 9.43504549 92.86693001 9.44038582 C93.69265638 9.44113424 94.51838275 9.44188266 95.36913114 9.44265376 C97.04676302 9.44418529 98.72439491 9.44572364 100.40202678 9.44726873 C116.12221063 9.46098575 131.84234466 9.45556159 147.56252737 9.44408352 C161.93357065 9.43415084 176.30448518 9.44709382 190.67550861 9.47101771 C205.44511729 9.49541922 220.21466604 9.50501407 234.98429447 9.49836498 C243.27096969 9.49487525 251.55754591 9.49708867 259.84420586 9.51461601 C266.89798543 9.5293511 273.95159626 9.52995636 281.00537258 9.5125451 C284.60162787 9.50404362 288.1975819 9.50186436 291.79382133 9.51719666 C295.69830796 9.5336366 299.60233176 9.51887174 303.50682068 9.50120544 C304.63494673 9.51081045 305.76307278 9.52041546 306.92538446 9.53031152 C316.62981598 9.44011121 324.21291196 6.73785434 332 1 C330.93392619 8.1601972 329.07545577 12.84080789 323.27305603 17.33868408 C314.22601142 22.84635619 303.78105006 21.70995472 293.56640625 21.671875 C291.48036941 21.68246472 289.3943432 21.69538027 287.30833435 21.71051025 C281.84326469 21.7445932 276.37855256 21.7500961 270.91339111 21.74859619 C263.18942041 21.75183204 255.46554762 21.79449972 247.74168396 21.83233643 C243.6328006 21.85234494 239.52410643 21.86168446 235.41517639 21.86248779 C233.54704788 21.8663071 231.67891942 21.87015097 229.81079102 21.87402344 C228.95831787 21.87192368 228.10584473 21.86982391 227.22753906 21.86766052 C223.8977616 21.87859346 221.18130537 21.93956488 218 23 C217.67 24.65 217.34 26.3 217 28 C211.72 28 206.44 28 201 28 C200.67 26.35 200.34 24.7 200 23 C196.25656949 21.81080139 192.69899925 21.87530268 188.79074097 21.87542725 C188.06342305 21.8740171 187.33610514 21.87260695 186.58674729 21.87115407 C184.14879515 21.86750323 181.71090127 21.87083672 179.27294922 21.87402344 C177.52505956 21.87262849 175.77717023 21.87072906 174.02928162 21.86836243 C170.26373905 21.86386564 166.49820738 21.86200935 162.7326622 21.86190033 C156.77309155 21.86075949 150.81358278 21.84791675 144.85403442 21.83233643 C143.84785313 21.82976357 142.84167183 21.82719072 141.80500019 21.8245399 C139.74736654 21.81927325 137.68973294 21.81398777 135.63209939 21.80868387 C121.75862965 21.77359209 107.88523657 21.74701994 94.01171875 21.74951172 C84.65275386 21.75110229 75.29399989 21.73501752 65.93510258 21.69880509 C60.98499656 21.68037454 56.03524256 21.67097677 51.08510971 21.68328094 C46.42442285 21.6947531 41.7643651 21.68293127 37.10376167 21.65364647 C35.39865949 21.64702907 33.6934993 21.6488328 31.98842049 21.65994453 C22.05176101 21.71929748 13.21254081 21.49526345 5.36915398 14.55744553 C1.36466398 10.18504147 0 5.82041155 0 0 Z " fill="#DEE8FA" transform="translate(38,476)"/>
<path d="M0 0 C0.33 0 0.66 0 1 0 C1 8.58 1 17.16 1 26 C110.56 26 220.12 26 333 26 C333 17.42 333 8.84 333 0 C333.33 0 333.66 0 334 0 C334 11.88 334 23.76 334 36 C329.38713264 36.00879936 329.38713264 36.00879936 324.68107605 36.01777649 C296.49945101 36.07291818 268.31790321 36.14285419 240.1363575 36.22898628 C236.44499062 36.24025484 232.75362337 36.25139323 229.06225586 36.26245117 C227.95989941 36.2657567 227.95989941 36.2657567 226.83527312 36.269129 C214.92596912 36.30452959 203.01666518 36.32937811 191.10732802 36.35034702 C178.89296728 36.37208712 166.67867499 36.40512039 154.46437246 36.44870156 C146.92365832 36.47524928 139.38302952 36.49292162 131.84227095 36.49934604 C126.06613715 36.50520918 120.29014544 36.52676226 114.51407814 36.55427551 C112.14005506 36.56310104 109.7660066 36.56676906 107.39196777 36.56500816 C104.16104215 36.56336771 100.93071831 36.57994949 97.69987488 36.60127258 C96.75144012 36.59642501 95.80300537 36.59157743 94.82583016 36.58658296 C93.9629417 36.5960395 93.10005325 36.60549604 92.21101665 36.61523914 C91.46486621 36.61713775 90.71871576 36.61903635 89.94995469 36.62099248 C87.39998584 37.11662316 86.55144204 37.93912756 85 40 C84.67 41.32 84.34 42.64 84 44 C79.05 44 74.1 44 69 44 C68.01 41.525 68.01 41.525 67 39 C63.47636527 36.65091018 61.96080225 36.73038274 57.78442383 36.68115234 C56.5033223 36.66128265 55.22222076 36.64141296 53.90229797 36.62094116 C52.50387749 36.60906473 51.10545517 36.59740188 49.70703125 36.5859375 C48.27641174 36.56722739 46.84580329 36.54765409 45.41520691 36.5272522 C41.65221673 36.47590817 37.88919077 36.43629479 34.1260376 36.39910889 C29.60964611 36.35204452 25.09343251 36.29043703 20.57718658 36.23126221 C13.7181961 36.14302219 6.85924018 36.07327836 0 36 C0 24.12 0 12.24 0 0 Z " fill="#F75C76" transform="translate(37,34)"/>
<path d="M0 0 C1.21977036 -0.00983414 2.43954071 -0.01966827 3.6962738 -0.02980042 C5.04495519 -0.02042874 6.39363379 -0.01064944 7.74230957 -0.00050354 C9.16496821 -0.00428723 10.58762316 -0.00978769 12.01026917 -0.01687622 C15.87190454 -0.03084187 19.73309491 -0.0196536 23.59470558 -0.00316501 C27.63540627 0.01068226 31.67608103 0.00422579 35.71679688 0.0007019 C42.50255508 -0.00200048 49.28813642 0.01147773 56.07385254 0.03465271 C63.91967534 0.06126271 71.76520243 0.0630097 79.6110549 0.05126435 C87.15773903 0.04048597 94.70431618 0.04667408 102.25099182 0.06081963 C105.4630435 0.06657894 108.67501687 0.06649719 111.8870697 0.06175423 C115.6693987 0.05698266 119.4514038 0.06709325 123.23367119 0.08870888 C124.6220077 0.09427452 126.01037536 0.09474405 127.39871407 0.08975601 C129.29324172 0.08380283 131.18780084 0.09814211 133.08227539 0.11352539 C134.14267281 0.11595529 135.20307022 0.11838518 136.29560089 0.12088871 C139.41175065 0.55254342 140.79244137 1.33617982 143.0411377 3.50120544 C143.73406763 6.20745149 143.52753961 8.76018758 143.0411377 11.50120544 C141.49775678 13.67596946 140.40448496 14.31953181 138.0411377 15.50120544 C136.16476729 15.60548401 134.28468042 15.64509627 132.40544128 15.65510559 C131.20669373 15.66370605 130.00794617 15.67230652 128.77287292 15.6811676 C127.43740888 15.68560294 126.10194438 15.68990129 124.76647949 15.69407654 C123.36544592 15.70197681 121.96441439 15.71024571 120.56338501 15.71885681 C115.95572862 15.74508472 111.34806309 15.76038477 106.74035645 15.77464294 C105.15492052 15.78000223 103.56948465 15.78537974 101.98404884 15.7907753 C95.38980109 15.81240477 88.7955558 15.83114206 82.20128155 15.84239769 C72.74681525 15.85864082 63.29275967 15.89182621 53.83844823 15.94879854 C47.19294942 15.98748126 40.54756054 16.00702835 33.90195209 16.01231825 C29.93167295 16.01597394 25.96183181 16.02801743 21.99167442 16.06042099 C18.25607867 16.09047298 14.52118656 16.09682429 10.78549576 16.08503723 C8.76225964 16.08471094 6.73906713 16.10919556 4.71598816 16.13441467 C-5.17065921 16.06628892 -5.17065921 16.06628892 -8.27763367 13.15614319 C-10.34152959 9.89691059 -10.68395645 8.28780821 -9.9588623 4.50120544 C-6.93123386 0.58218106 -4.87073046 0.0009613 0 0 Z " fill="#020202" transform="translate(185.9588623046875,413.49879455566406)"/>
<path d="M0 0 C1.21977036 -0.00983414 2.43954071 -0.01966827 3.6962738 -0.02980042 C5.04495519 -0.02042874 6.39363379 -0.01064944 7.74230957 -0.00050354 C9.16496821 -0.00428723 10.58762316 -0.00978769 12.01026917 -0.01687622 C15.87190454 -0.03084187 19.73309491 -0.0196536 23.59470558 -0.00316501 C27.63540627 0.01068226 31.67608103 0.00422579 35.71679688 0.0007019 C42.50255508 -0.00200048 49.28813642 0.01147773 56.07385254 0.03465271 C63.91967534 0.06126271 71.76520243 0.0630097 79.6110549 0.05126435 C87.15773903 0.04048597 94.70431618 0.04667408 102.25099182 0.06081963 C105.4630435 0.06657894 108.67501687 0.06649719 111.8870697 0.06175423 C115.6693987 0.05698266 119.4514038 0.06709325 123.23367119 0.08870888 C124.6220077 0.09427452 126.01037536 0.09474405 127.39871407 0.08975601 C129.29324172 0.08380283 131.18780084 0.09814211 133.08227539 0.11352539 C134.14267281 0.11595529 135.20307022 0.11838518 136.29560089 0.12088871 C139.41175065 0.55254342 140.79244137 1.33617982 143.0411377 3.50120544 C143.73406763 6.20745149 143.52753961 8.76018758 143.0411377 11.50120544 C141.49775678 13.67596946 140.40448496 14.31953181 138.0411377 15.50120544 C136.16476729 15.60548401 134.28468042 15.64509627 132.40544128 15.65510559 C131.20669373 15.66370605 130.00794617 15.67230652 128.77287292 15.6811676 C127.43740888 15.68560294 126.10194438 15.68990129 124.76647949 15.69407654 C123.36544592 15.70197681 121.96441439 15.71024571 120.56338501 15.71885681 C115.95572862 15.74508472 111.34806309 15.76038477 106.74035645 15.77464294 C105.15492052 15.78000223 103.56948465 15.78537974 101.98404884 15.7907753 C95.38980109 15.81240477 88.7955558 15.83114206 82.20128155 15.84239769 C72.74681525 15.85864082 63.29275967 15.89182621 53.83844823 15.94879854 C47.19294942 15.98748126 40.54756054 16.00702835 33.90195209 16.01231825 C29.93167295 16.01597394 25.96183181 16.02801743 21.99167442 16.06042099 C18.25607867 16.09047298 14.52118656 16.09682429 10.78549576 16.08503723 C8.76225964 16.08471094 6.73906713 16.10919556 4.71598816 16.13441467 C-5.17065921 16.06628892 -5.17065921 16.06628892 -8.27763367 13.15614319 C-10.34152959 9.89691059 -10.68395645 8.28780821 -9.9588623 4.50120544 C-6.93123386 0.58218106 -4.87073046 0.0009613 0 0 Z " fill="#020202" transform="translate(185.9588623046875,159.49879455566406)"/>
<path d="M0 0 C1.20149689 -0.00990463 2.40299377 -0.01980927 3.64089966 -0.03001404 C4.95581894 -0.02551239 6.27073822 -0.02101074 7.62550354 -0.01637268 C9.02683558 -0.02207608 10.42816297 -0.02904022 11.82948303 -0.03717041 C15.63324652 -0.05512089 19.43677956 -0.05392991 23.24057269 -0.04822803 C26.41656853 -0.04513878 29.59251993 -0.0512257 32.76850945 -0.05726677 C40.26140571 -0.07131669 47.75418797 -0.06974696 55.24708557 -0.05836487 C62.97591503 -0.04688378 70.70439749 -0.06095789 78.43318123 -0.08776134 C85.07025262 -0.10991653 91.70721508 -0.11655613 98.34432083 -0.11068493 C102.30776118 -0.10731361 106.27097911 -0.10974182 110.23438835 -0.12693596 C113.96177813 -0.14240025 117.68865383 -0.13845588 121.41602325 -0.11963081 C123.43441058 -0.11418614 125.45282095 -0.12846304 127.47116089 -0.14332581 C129.27763596 -0.1285746 129.27763596 -0.1285746 131.12060547 -0.11352539 C132.1653324 -0.11331611 133.21005934 -0.11310682 134.28644466 -0.1128912 C137.85445815 0.51658527 139.54628783 1.89144342 142.12379456 4.38768005 C143.04865421 7.38054888 142.58240398 9.17741406 142.12379456 12.38768005 C139.917073 14.67232747 138.53424221 15.33040651 135.37825775 15.7707901 C133.78766163 15.77638317 133.78766163 15.77638317 132.16493225 15.78208923 C130.9451619 15.79343903 129.72539154 15.80478882 128.46865845 15.81648254 C127.1199792 15.81383932 125.77130056 15.81086811 124.42262268 15.80760193 C122.9999627 15.81494258 121.57730868 15.8235288 120.15466309 15.83326721 C116.29313156 15.8554901 112.43181336 15.85841361 108.57022667 15.8565197 C105.34691295 15.85640006 102.12364454 15.86496137 98.90034342 15.87329721 C91.2972248 15.89253323 83.69421599 15.89541404 76.09107971 15.88865662 C68.24515728 15.88201187 60.39970451 15.90489679 52.55387735 15.94197035 C45.81830586 15.9726438 39.08288565 15.98403007 32.34724569 15.98013353 C28.32397408 15.97806395 24.30106808 15.98357724 20.27786255 16.00802612 C16.49540802 16.03025294 12.71371877 16.02845042 8.93126106 16.0080986 C7.54290742 16.00468148 6.15450265 16.00980804 4.76621819 16.02408218 C2.871778 16.04221727 0.97710386 16.0265486 -0.91734314 16.00914001 C-2.50793926 16.01020878 -2.50793926 16.01020878 -4.13066864 16.01129913 C-6.87620544 15.38768005 -6.87620544 15.38768005 -9.24863434 13.07540131 C-10.87620544 10.38768005 -10.87620544 10.38768005 -10.87620544 6.76268005 C-9.11607595 0.822243 -5.86533405 0.01364691 0 0 Z " fill="#030303" transform="translate(186.87620544433594,328.61231994628906)"/>
<path d="M0 0 C1.22962967 -0.00983414 2.45925934 -0.01966827 3.72615051 -0.02980042 C5.08586398 -0.02042878 6.44557468 -0.01064948 7.80528259 -0.00050354 C9.23941579 -0.00428716 10.67354534 -0.00978756 12.10766602 -0.01687622 C16.00022375 -0.03084154 19.89234002 -0.01965438 23.78487325 -0.00316501 C27.85673833 0.01067988 31.92857764 0.00422616 36.00045776 0.0007019 C42.83749004 -0.00200036 49.67434677 0.01147777 56.51133728 0.03465271 C64.41966335 0.06127326 72.32769609 0.06300628 80.23605162 0.05126435 C87.84040401 0.0404921 95.44465012 0.04666857 103.04899406 0.06081963 C106.28699183 0.06658319 109.52491192 0.06649389 112.76291084 0.06175423 C116.57396313 0.05698821 120.38469342 0.06707015 124.19568443 0.08870888 C125.59572895 0.09428171 126.99580439 0.09473748 128.39585114 0.08975601 C130.30386565 0.08381761 132.21191147 0.09812149 134.11987305 0.11352539 C135.1885666 0.11595529 136.25726015 0.11838518 137.35833836 0.12088871 C139.9964447 0.50120544 139.9964447 0.50120544 141.83248043 1.7793417 C143.46827069 4.19918225 143.45801392 6.60763985 143.5901947 9.46604919 C142.66184829 12.64807866 140.69728756 13.68804339 137.9964447 15.50120544 C135.17471218 15.99898338 135.17471218 15.99898338 132.03121948 15.99568176 C130.83531693 16.00407074 129.63941437 16.01245972 128.40727234 16.02110291 C127.10372803 16.00986389 125.80018372 15.99862488 124.45713806 15.98704529 C123.06389001 15.98919229 121.67064372 15.99307167 120.27740479 15.99855042 C116.5005162 16.00823129 112.72410145 15.99295717 108.94727015 15.97264433 C104.99333546 15.95505767 101.03941505 15.9585987 97.08544922 15.95936584 C90.4468952 15.95749379 83.80852421 15.94014182 77.17002869 15.91282654 C69.49520608 15.88136378 61.82058379 15.87083085 54.14570135 15.87229764 C45.97309994 15.87364861 37.80057575 15.8597671 29.62799764 15.84140444 C27.27344866 15.83714233 24.91891215 15.83572216 22.56435966 15.83492661 C18.86496974 15.83291725 15.16574793 15.82070389 11.4664135 15.80059433 C9.46098935 15.7919678 7.45553072 15.79308712 5.4500885 15.79447937 C4.25700577 15.7859494 3.06392303 15.77741943 1.83468628 15.76863098 C0.79771071 15.76527929 -0.23926485 15.7619276 -1.30766392 15.75847435 C-4.09173684 15.49279028 -5.6864243 15.04250937 -8.0035553 13.50120544 C-10.33104874 10.00996527 -10.50654846 8.60898294 -10.0035553 4.50120544 C-6.98903541 0.5505038 -4.87707516 0.00095475 0 0 Z " fill="#070707" transform="translate(186.00355529785156,244.49879455566406)"/>
<path d="M0 0 C0.84671265 -0.00099701 1.69342529 -0.00199402 2.5657959 -0.00302124 C4.35108862 0.00164746 6.13639603 0.02103053 7.92138672 0.05419922 C10.64801194 0.10141983 13.37072555 0.09531415 16.09765625 0.08203125 C17.83596072 0.09318552 19.57424878 0.10740578 21.3125 0.125 C22.12408569 0.12317719 22.93567139 0.12135437 23.77185059 0.11947632 C28.80258938 0.24495975 31.51084154 0.94033287 35.15625 4.7265625 C36.76948229 7.95302709 36.27688563 11.473182 36.25390625 15.015625 C36.25289917 15.74096436 36.25189209 16.46630371 36.25085449 17.21362305 C36.24561769 19.92628559 36.23165644 22.63892561 36.21875 25.3515625 C36.198125 31.4153125 36.1775 37.4790625 36.15625 43.7265625 C19.65625 43.7265625 3.15625 43.7265625 -13.84375 43.7265625 C-13.9984375 34.7546875 -13.9984375 34.7546875 -14.15625 25.6015625 C-14.20177002 23.72452637 -14.24729004 21.84749023 -14.29418945 19.91357422 C-14.30880447 18.41115095 -14.32154274 16.90870775 -14.33203125 15.40625 C-14.35761108 14.63804932 -14.38319092 13.86984863 -14.4095459 13.07836914 C-14.41263456 9.24225348 -14.08318497 6.4323776 -11.8659668 3.22949219 C-7.81515331 -0.12529736 -5.10988367 -0.11597232 0 0 Z " fill="#FE7D91" transform="translate(438.84375,14.2734375)"/>
<path d="M0 0 C1.31871094 0.00193359 2.63742188 0.00386719 3.99609375 0.00585938 C14.91063463 0.15544953 14.91063463 0.15544953 19.5 3.5625 C21.64397664 7.85045328 20.80912101 13.49782922 20.85009766 18.25610352 C20.86663807 19.66349852 20.89390393 21.07081016 20.93212891 22.4777832 C20.98710174 24.51297295 21.00879877 26.54619759 21.0234375 28.58203125 C21.0531665 30.40891479 21.0531665 30.40891479 21.08349609 32.27270508 C20.31883516 36.583921 19.01780516 38.00344942 15.5 40.5625 C11.20536024 41.44050805 6.95742116 41.32374458 2.58007812 41.26928711 C0.50411439 41.25003815 -1.56516255 41.28947505 -3.640625 41.33398438 C-14.77228524 41.30670089 -14.77228524 41.30670089 -17.8984375 38.39453125 C-20.97545109 33.18448236 -20.21450065 26.38600872 -20.125 20.5625 C-20.14433594 19.304375 -20.16367188 18.04625 -20.18359375 16.75 C-20.12934416 6.50767704 -20.12934416 6.50767704 -17.8671875 2.72265625 C-13.35544453 -1.48347846 -5.68327118 -0.1583316 0 0 Z " fill="#B9F099" transform="translate(112.5,231.4375)"/>
<path d="M0 0 C0.69512695 -0.00241196 1.39025391 -0.00482391 2.10644531 -0.00730896 C3.57232381 -0.0063319 5.03823984 0.00702874 6.50390625 0.03198242 C8.74346659 0.06630612 10.97908126 0.05263786 13.21875 0.03320312 C14.64585007 0.04010192 16.07293999 0.04977464 17.5 0.0625 C19.44132812 0.0788147 19.44132812 0.0788147 21.421875 0.09545898 C24.75 0.62890625 24.75 0.62890625 27.16772461 2.24072266 C30.18199893 6.79027233 29.37566656 12.17989031 29.32641602 17.47338867 C29.31255951 19.55745503 29.34661189 21.63701672 29.38476562 23.72070312 C29.38283203 25.04005859 29.38089844 26.35941406 29.37890625 27.71875 C29.37963135 28.92394287 29.38035645 30.12913574 29.38110352 31.37084961 C28.55523423 35.63437982 27.23719951 37.0836836 23.75 39.62890625 C20.5078125 40.27587891 20.5078125 40.27587891 16.875 40.29296875 C15.56015625 40.29941406 14.2453125 40.30585938 12.890625 40.3125 C12.21064453 40.30202637 11.53066406 40.29155273 10.83007812 40.28076172 C8.75465319 40.25396633 6.68463324 40.28053512 4.609375 40.3125 C2.63710937 40.30283203 2.63710937 40.30283203 0.625 40.29296875 C-1.17324219 40.28450928 -1.17324219 40.28450928 -3.0078125 40.27587891 C-7.24494416 39.43036694 -8.70912989 38.09102923 -11.25 34.62890625 C-11.88110352 31.47851562 -11.88110352 31.47851562 -11.87890625 27.97265625 C-11.88083984 26.70292969 -11.88277344 25.43320312 -11.88476562 24.125 C-11.86091797 22.80628906 -11.83707031 21.48757813 -11.8125 20.12890625 C-11.82345703 18.81019531 -11.83441406 17.49148438 -11.84570312 16.1328125 C-11.77296367 6.57969794 -11.77296367 6.57969794 -9.66772461 2.75219727 C-6.37624616 -0.13844073 -4.34290705 -0.00243315 0 0 Z " fill="#BAF29A" transform="translate(104.25,401.37109375)"/>
<path d="M0 0 C1.31484375 -0.00644531 2.6296875 -0.01289063 3.984375 -0.01953125 C5.0043457 -0.0038208 5.0043457 -0.0038208 6.04492188 0.01220703 C8.12034681 0.03900242 10.19036676 0.01243363 12.265625 -0.01953125 C14.23789063 -0.00986328 14.23789063 -0.00986328 16.25 0 C17.44882813 0.00563965 18.64765625 0.0112793 19.8828125 0.01708984 C24.11994416 0.86260181 25.58412989 2.20193952 28.125 5.6640625 C28.75610352 8.81445312 28.75610352 8.81445312 28.75390625 12.3203125 C28.75583984 13.59003906 28.75777344 14.85976563 28.75976562 16.16796875 C28.73591797 17.48667969 28.71207031 18.80539062 28.6875 20.1640625 C28.69845703 21.48277344 28.70941406 22.80148437 28.72070312 24.16015625 C28.64795807 33.71400722 28.64795807 33.71400722 26.54272461 37.53857422 C23.25555581 40.42841483 21.21500008 40.30921315 16.875 40.328125 C16.17987305 40.33290863 15.48474609 40.33769226 14.76855469 40.34262085 C13.30271128 40.34601477 11.83679167 40.33684731 10.37109375 40.31591797 C8.13109114 40.28913533 5.89609734 40.31567249 3.65625 40.34765625 C2.22915564 40.34435205 0.80206439 40.33794558 -0.625 40.328125 C-1.91921875 40.32248535 -3.2134375 40.3168457 -4.546875 40.31103516 C-7.875 39.6640625 -7.875 39.6640625 -10.29272461 37.53857422 C-13.26991631 32.12992509 -12.48763647 26.19813379 -12.4375 20.1640625 C-12.46134766 18.84535156 -12.48519531 17.52664063 -12.50976562 16.16796875 C-12.50783203 14.89824219 -12.50589844 13.62851562 -12.50390625 12.3203125 C-12.50463135 11.16337891 -12.50535645 10.00644531 -12.50610352 8.81445312 C-11.09599094 1.77534573 -6.66775731 0.03136714 0 0 Z " fill="#BAF29A" transform="translate(104.875,316.3359375)"/>
<path d="M0 0 C15.84 0 31.68 0 48 0 C48 7.26 48 14.52 48 22 C32.16 22 16.32 22 0 22 C0 14.74 0 7.48 0 0 Z " fill="#6B5D68" transform="translate(426,73)"/>
<path d="M0 0 C0.70461365 0.00707474 1.40922729 0.01414948 2.13519287 0.0214386 C4.37768391 0.04934768 6.61764371 0.11206838 8.859375 0.17578125 C10.38277634 0.20086914 11.90621697 0.22368147 13.4296875 0.24414062 C17.15706749 0.29915912 20.88297406 0.38540321 24.609375 0.48828125 C24.609375 4.48828125 24.609375 4.48828125 21.984375 7.50390625 C20.86936928 8.59236422 19.74390415 9.6701885 18.609375 10.73828125 C18.03703125 11.29257813 17.4646875 11.846875 16.875 12.41796875 C15.46194443 13.78392247 14.03678742 15.13733736 12.609375 16.48828125 C9.75535788 15.18044471 8.16340729 14.07204472 5.796875 11.86328125 C2.76577763 9.21673567 2.76577763 9.21673567 -1.078125 8.92578125 C-4.39053073 9.19218396 -4.39053073 9.19218396 -6.328125 11.17578125 C-7.5838454 13.90881976 -7.68586973 15.50374822 -7.390625 18.48828125 C-5.45352794 21.43969239 -2.84642361 23.77457347 -0.328125 26.23828125 C0.32865234 26.92277344 0.98542969 27.60726562 1.66210938 28.3125 C4.90232457 31.53675355 6.94613774 33.30121433 11.41796875 34.5625 C15.00307638 34.4791254 16.48248822 33.62603171 19.05859375 31.16796875 C21.50238427 28.52104199 23.87857618 25.82462157 26.19140625 23.0625 C26.65933594 22.54300781 27.12726563 22.02351563 27.609375 21.48828125 C27.939375 21.48828125 28.269375 21.48828125 28.609375 21.48828125 C28.7451433 23.54894229 28.84171403 25.61220882 28.921875 27.67578125 C28.97988281 28.82433594 29.03789062 29.97289062 29.09765625 31.15625 C28.45485573 35.54272073 27.02902487 36.73614703 23.609375 39.48828125 C20.3671875 40.13525391 20.3671875 40.13525391 16.734375 40.15234375 C15.41953125 40.15878906 14.1046875 40.16523438 12.75 40.171875 C12.07001953 40.16140137 11.39003906 40.15092773 10.68945312 40.14013672 C8.61402819 40.11334133 6.54400824 40.13991012 4.46875 40.171875 C2.49648437 40.16220703 2.49648437 40.16220703 0.484375 40.15234375 C-1.31386719 40.14388428 -1.31386719 40.14388428 -3.1484375 40.13525391 C-7.38556916 39.28974194 -8.84975489 37.95040423 -11.390625 34.48828125 C-12.02172852 31.33789062 -12.02172852 31.33789062 -12.01953125 27.83203125 C-12.02146484 26.56230469 -12.02339844 25.29257813 -12.02539062 23.984375 C-12.00154297 22.66566406 -11.97769531 21.34695312 -11.953125 19.98828125 C-11.96408203 18.66957031 -11.97503906 17.35085937 -11.98632812 15.9921875 C-11.91365224 6.44742151 -11.91365224 6.44742151 -9.81713867 2.6027832 C-6.47198881 -0.31223269 -4.39348499 -0.08717232 0 0 Z " fill="#B7EE98" transform="translate(104.390625,147.51171875)"/>
<path d="M0 0 C12.54 0 25.08 0 38 0 C36.66790873 3.99627382 35.41573996 7.44423239 33.6171875 11.1796875 C32.95009766 12.571875 32.95009766 12.571875 32.26953125 13.9921875 C31.80933594 14.94351562 31.34914063 15.89484375 30.875 16.875 C30.40707031 17.84953125 29.93914062 18.8240625 29.45703125 19.828125 C28.3078603 22.22027678 27.15435964 24.61034776 26 27 C21.71 27 17.42 27 13 27 C11.39505797 23.95874024 9.79102201 20.91700837 8.1875 17.875 C7.73568359 17.0190625 7.28386719 16.163125 6.81835938 15.28125 C0 2.3412979 0 2.3412979 0 0 Z " fill="#FEDBCF" transform="translate(431,448)"/>
<path d="M0 0 C0.33 0 0.66 0 1 0 C1 8.91 1 17.82 1 27 C16.84 27 32.68 27 49 27 C49 18.09 49 9.18 49 0 C49.33 0 49.66 0 50 0 C50 12.21 50 24.42 50 37 C33.5 37 17 37 0 37 C0 24.79 0 12.58 0 0 Z " fill="#E85770" transform="translate(425,21)"/>
<path d="M0 0 C15.84 0 31.68 0 48 0 C48 3.3 48 6.6 48 10 C32.16 10 16.32 10 0 10 C0 6.7 0 3.4 0 0 Z " fill="#574D56" transform="translate(426,85)"/>
<path d="M0 0 C0.33 0 0.66 0 1 0 C1.12403121 4.18080601 1.21453601 8.36062502 1.2746582 12.54272461 C1.29973147 13.96381291 1.33379999 15.38477313 1.37719727 16.80541992 C1.43817858 18.85367462 1.46627762 20.90021883 1.48828125 22.94921875 C1.51446533 24.17987061 1.54064941 25.41052246 1.56762695 26.6784668 C0.8256294 31.02034925 -0.45662912 32.43236157 -4 35 C-7.2421875 35.64697266 -7.2421875 35.64697266 -10.875 35.6640625 C-12.18984375 35.67050781 -13.5046875 35.67695313 -14.859375 35.68359375 C-15.53935547 35.67312012 -16.21933594 35.66264648 -16.91992188 35.65185547 C-18.99534681 35.62506008 -21.06536676 35.65162887 -23.140625 35.68359375 C-25.11289063 35.67392578 -25.11289063 35.67392578 -27.125 35.6640625 C-28.92324219 35.65560303 -28.92324219 35.65560303 -30.7578125 35.64697266 C-35.00037943 34.80037609 -36.46794597 33.47778578 -39 30 C-39.56762695 26.77026367 -39.56762695 26.77026367 -39.48828125 23.16796875 C-39.47216797 21.87568359 -39.45605469 20.58339844 -39.43945312 19.25195312 C-39.39768274 17.89711843 -39.35535809 16.54230072 -39.3125 15.1875 C-39.28740069 13.81319134 -39.26459036 12.43883884 -39.24414062 11.06445312 C-39.18526461 7.70852024 -39.1030642 4.3548191 -39 1 C-38.67 1 -38.34 1 -38 1 C-38 8.26 -38 15.52 -38 23 C-25.46 23 -12.92 23 0 23 C0 15.41 0 7.82 0 0 Z " fill="#96DD95" transform="translate(132,406)"/>
<path d="M0 0 C0.33 0 0.66 0 1 0 C1.12403121 4.18080601 1.21453601 8.36062502 1.2746582 12.54272461 C1.29973147 13.96381291 1.33379999 15.38477313 1.37719727 16.80541992 C1.43817858 18.85367462 1.46627762 20.90021883 1.48828125 22.94921875 C1.51446533 24.17987061 1.54064941 25.41052246 1.56762695 26.6784668 C0.82562588 31.02036982 -0.45800915 32.43067712 -4 35 C-8.29463976 35.87800805 -12.54257884 35.76124458 -16.91992188 35.70678711 C-18.99588561 35.68753815 -21.06516255 35.72697505 -23.140625 35.77148438 C-34.27234914 35.74420074 -34.27234914 35.74420074 -37.41796875 32.85546875 C-40.54442056 27.58438069 -39.50397046 20.49872444 -39.3125 14.625 C-39.28994141 13.31660156 -39.26738281 12.00820312 -39.24414062 10.66015625 C-39.18535914 7.43893113 -39.10322731 4.2200568 -39 1 C-38.67 1 -38.34 1 -38 1 C-38 8.26 -38 15.52 -38 23 C-25.46 23 -12.92 23 0 23 C0 15.41 0 7.82 0 0 Z " fill="#94DA93" transform="translate(132,237)"/>
<path d="M0 0 C0.33 0 0.66 0 1 0 C1.33 7.26 1.66 14.52 2 22 C5.63233102 23.21077701 8.95121987 23.12444164 12.73046875 23.09765625 C13.48088943 23.0962413 14.23131012 23.09482635 15.00447083 23.09336853 C17.3988546 23.0877756 19.79314453 23.07522444 22.1875 23.0625 C23.81184761 23.05748408 25.43619668 23.05292134 27.06054688 23.04882812 C31.04042975 23.0386598 35.02010993 23.01908312 39 23 C39 15.41 39 7.82 39 0 C39.33 0 39.66 0 40 0 C40.0992502 4.03833789 40.17164562 8.07619872 40.21972656 12.11547852 C40.2397799 13.48800023 40.26703028 14.86043717 40.30175781 16.23266602 C40.35054552 18.21072044 40.37088876 20.18941119 40.390625 22.16796875 C40.41157227 23.35672607 40.43251953 24.5454834 40.45410156 25.77026367 C39.89237018 29.76550264 39.04228687 31.35130212 36 34 C32.671875 34.64697266 32.671875 34.64697266 28.75 34.6640625 C28.05487305 34.66884613 27.35974609 34.67362976 26.64355469 34.67855835 C25.17771128 34.68195227 23.71179167 34.67278481 22.24609375 34.65185547 C20.00609114 34.62507283 17.77109734 34.65160999 15.53125 34.68359375 C14.10415564 34.68028955 12.67706439 34.67388308 11.25 34.6640625 C9.95578125 34.65842285 8.6615625 34.6527832 7.328125 34.64697266 C4 34 4 34 1.57128906 31.88549805 C-0.34024458 28.37517857 -0.46082345 26.15173097 -0.390625 22.16796875 C-0.37773438 20.87568359 -0.36484375 19.58339844 -0.3515625 18.25195312 C-0.31814634 16.89712454 -0.28428662 15.54230683 -0.25 14.1875 C-0.22992034 12.81317683 -0.21167213 11.43882561 -0.1953125 10.06445312 C-0.14821732 6.70892144 -0.08245135 3.35481873 0 0 Z " fill="#96DD95" transform="translate(93,322)"/>
<path d="M0 0 C0.33 0 0.66 0 1 0 C1.33 7.26 1.66 14.52 2 22 C5.3 22.66 8.6 23.32 12 24 C12.33 23.34 12.66 22.68 13 22 C13.51949219 22.5053125 14.03898437 23.010625 14.57421875 23.53125 C15.27160156 24.1809375 15.96898438 24.830625 16.6875 25.5 C17.71423828 26.47453125 17.71423828 26.47453125 18.76171875 27.46875 C21.45677315 29.31248704 22.79696724 29.45683449 26 29 C30.58689909 25.80911368 34.00628123 21.84459571 37.58203125 17.57421875 C38.04996094 17.05472656 38.51789063 16.53523438 39 16 C39.33 16 39.66 16 40 16 C40.1357683 18.06066104 40.23233903 20.12392757 40.3125 22.1875 C40.37050781 23.33605469 40.42851562 24.48460937 40.48828125 25.66796875 C39.84548073 30.05443948 38.41964987 31.24786578 35 34 C31.7578125 34.64697266 31.7578125 34.64697266 28.125 34.6640625 C26.81015625 34.67050781 25.4953125 34.67695313 24.140625 34.68359375 C23.46064453 34.67312012 22.78066406 34.66264648 22.08007812 34.65185547 C20.00465319 34.62506008 17.93463324 34.65162887 15.859375 34.68359375 C13.88710937 34.67392578 13.88710937 34.67392578 11.875 34.6640625 C10.07675781 34.65560303 10.07675781 34.65560303 8.2421875 34.64697266 C3.99962057 33.80037609 2.53205403 32.47778578 0 29 C-0.56762695 25.77026367 -0.56762695 25.77026367 -0.48828125 22.16796875 C-0.47216797 20.87568359 -0.45605469 19.58339844 -0.43945312 18.25195312 C-0.39768274 16.89711843 -0.35535809 15.54230072 -0.3125 14.1875 C-0.28740069 12.81319134 -0.26459036 11.43883884 -0.24414062 10.06445312 C-0.18526461 6.70852024 -0.1030642 3.3548191 0 0 Z " fill="#93D993" transform="translate(93,153)"/>
<path d="M0 0 C0 1.98 0 3.96 0 6 C-2.64738916 7.4606285 -3.89448334 8 -7 8 C-5.84316054 5.30070793 -3.38550714 0 0 0 Z " fill="#A4D789" transform="translate(133,169)"/>
</svg>
